HIERARCHY
ROOT root
{
	OFFSET	0	13.1	24.9
	CHANNELS 6  Xposition Yposition Zposition Xrotation Yrotation Zrotation
	JOINT spine_1
	{
		OFFSET	0	9.99999	0
		CHANNELS 3  Xrotation Yrotation Zrotation
		JOINT spine_2
		{
			OFFSET	0	112	-10
			CHANNELS 3  Xrotation Yrotation Zrotation
			JOINT spine_3
			{
				OFFSET	0	206.5	19.3
				CHANNELS 3  Xrotation Yrotation Zrotation
				JOINT spine_4
				{
					OFFSET	0	110.4	14.6
					CHANNELS 3  Xrotation Yrotation Zrotation
					JOINT neck_1
					{
						OFFSET	0	71.8	-50.3
						CHANNELS 3  Xrotation Yrotation Zrotation
						JOINT neck_2
						{
							OFFSET	0	86.2	-25.8
							CHANNELS 3  Xrotation Yrotation Zrotation
							JOINT head_ee
							{
								OFFSET	0	179.8	-8.7
								CHANNELS 3  Xrotation Yrotation Zrotation
								End Site
								{
									OFFSET	1	0	0
								}
							}
						}
					}
					JOINT left_clavicle
					{
						OFFSET	-43.2	22.4	-70.8
						CHANNELS 3  Xrotation Yrotation Zrotation
						JOINT left_shoulder
						{
							OFFSET	-93.9	-5.79999	48.7
							CHANNELS 3  Xrotation Yrotation Zrotation
							JOINT left_elbow
							{
								OFFSET	-291.4	-30.8	15.2
								CHANNELS 3  Xrotation Yrotation Zrotation
								JOINT left_lowarm_twist
								{
									OFFSET	-110.7	-3.89999	13.6
									CHANNELS 3  Xrotation Yrotation Zrotation
									JOINT left_hand
									{
										OFFSET	-110.7	-3.89999	13.6
										CHANNELS 3  Xrotation Yrotation Zrotation
										JOINT left_ee
										{
											OFFSET	-80.8	-5.10001	12.1
											CHANNELS 3  Xrotation Yrotation Zrotation
											End Site
											{
												OFFSET	1	0	0
											}
										}
									}
								}
							}
						}
					}
					JOINT right_clavicle
					{
						OFFSET	43.2	22.4	-70.8
						CHANNELS 3  Xrotation Yrotation Zrotation
						JOINT right_shoulder
						{
							OFFSET	93.9	-5.79999	48.7
							CHANNELS 3  Xrotation Yrotation Zrotation
							JOINT right_elbow
							{
								OFFSET	291.4	-30.8	15.2
								CHANNELS 3  Xrotation Yrotation Zrotation
								JOINT right_lowarm_twist
								{
									OFFSET	110.7	-3.89999	13.6
									CHANNELS 3  Xrotation Yrotation Zrotation
									JOINT right_hand
									{
										OFFSET	110.7	-3.89999	13.6
										CHANNELS 3  Xrotation Yrotation Zrotation
										JOINT right_ee
										{
											OFFSET	80.8	-5.10001	12.1
											CHANNELS 3  Xrotation Yrotation Zrotation
											End Site
											{
												OFFSET	1	0	0
											}
										}
									}
								}
							}
						}
					}
				}
			}
		}
	}
	JOINT left_hip
	{
		OFFSET	-82.8	-127.5	0.300001
		CHANNELS 3  Xrotation Yrotation Zrotation
		JOINT left_knee
		{
			OFFSET	-28.2	-396.7	2.2
			CHANNELS 3  Xrotation Yrotation Zrotation
			JOINT left_ankle
			{
				OFFSET	-11.7	-411.3	35.4
				CHANNELS 3  Xrotation Yrotation Zrotation
				JOINT left_toes
				{
					OFFSET	0	-60	-88.6
					CHANNELS 3  Xrotation Yrotation Zrotation
					JOINT left_foot_ee
					{
						OFFSET	-22.5	-16.5	-42.2
						CHANNELS 3  Xrotation Yrotation Zrotation
						End Site
						{
							OFFSET	1	0	0
						}
					}
				}
			}
		}
	}
	JOINT right_hip
	{
		OFFSET	82.8	-127.5	0.300001
		CHANNELS 3  Xrotation Yrotation Zrotation
		JOINT right_knee
		{
			OFFSET	28.2	-396.7	2.2
			CHANNELS 3  Xrotation Yrotation Zrotation
			JOINT right_ankle
			{
				OFFSET	11.7	-411.3	35.4
				CHANNELS 3  Xrotation Yrotation Zrotation
				JOINT right_toes
				{
					OFFSET	0	-60	-88.6
					CHANNELS 3  Xrotation Yrotation Zrotation
					JOINT right_foot_ee
					{
						OFFSET	22.5	-16.5	-42.2
						CHANNELS 3  Xrotation Yrotation Zrotation
						End Site
						{
							OFFSET	1	0	0
						}
					}
				}
			}
		}
	}
}
MOTION
Frames: 5
Frame Time: 0.02
662.449 715.184 -1305.94 -19.3533 61.4229 15.0928 5.64364 0.897043 3.72928 5.65114 0.658096 3.77871 5.68653 0.230538 3.82858 5.66704 0.831871 3.74434 -15.0958 12.5146 -4.07478 -15.7114 26.3283 0.524075 -0.0 0.0 -0.0 -11.2686 21.2742 -14.2467 -5.36133 -41.7129 66.0093 0.910569 -24.2784 0.195864 -17.1418 -0.908498 1.98655 2.21853 1.74939 15.6851 -0.0 0.0 -0.0 10.4488 -11.2857 -19.5406 -41.8415 55.7912 -51.043 1.15487 29.7724 -0.307 44.6614 0.61366 5.5298 -1.25261 -22.1094 -1.54563 0.0 0.0 0.0 9.57618 23.9744 3.48516 7.57048 -0.384891 -1.09661 19.0705 -16.8191 -2.86182 -23.3594 0.0 0.0 -0.0 0.0 -0.0 21.643 16.6361 -0.974964 -56.2112 1.80505 -8.09497 40.6224 -18.6247 5.05464 -2.03379 0.0 0.0 0.0 0.0 0.0 
658.259 716.77 -1306.37 -20.8704 62.7129 16.5327 5.73336 0.696891 3.78452 5.74121 0.45484 3.82112 5.76307 0.0284961 3.84795 5.74297 0.635407 3.79531 -16.9395 12.722 -3.49292 -17.7313 26.3616 1.61989 -0.0 0.0 -0.0 -11.3127 21.6764 -14.1303 -5.80087 -41.3688 65.8901 0.916086 -24.4083 0.198138 -16.9975 -0.898418 1.97107 2.11039 2.86835 15.3725 -0.0 0.0 -0.0 10.5966 -10.4249 -19.9267 -40.464 55.8223 -51.8741 1.19085 30.5357 -0.325071 43.7345 0.557623 5.42526 -1.2708 -21.6962 -1.25673 0.0 0.0 0.0 9.31054 23.8281 4.07389 7.82525 -0.400351 -1.13259 18.8958 -18.6743 -2.8811 -24.1775 0.0 0.0 -0.0 0.0 -0.0 21.4745 13.5674 -0.523234 -55.8782 1.77173 -8.05592 40.3452 -20.9637 5.08386 -0.366503 0.0 0.0 0.0 0.0 0.0 
657.122 719.157 -1307.14 -21.3206 62.7431 16.7111 5.8125 0.730026 3.79141 5.82036 0.487471 3.8301 5.84426 0.0654841 3.8604 5.8241 0.673894 3.80177 -16.5522 12.9101 -2.93056 -17.3237 26.4133 2.12233 -0.0 0.0 -0.0 -11.3755 21.7728 -14.185 -6.33103 -41.5847 65.8171 0.893562 -23.876 0.188926 -16.5965 -0.870611 1.92792 2.11819 3.42439 15.6395 -0.0 0.0 -0.0 10.6894 -9.58273 -20.2076 -39.0869 56.0453 -52.8663 1.24265 31.614 -0.351811 43.3497 0.53486 5.3816 -0.959053 -20.7216 -2.66098 0.0 0.0 0.0 9.44502 25.3335 3.89183 7.91571 -0.405879 -1.14535 19.4365 -21.013 -3.01702 -24.1114 0.0 0.0 -0.0 0.0 -0.0 22.3563 12.7594 -0.903949 -53.6338 1.55315 -7.78782 38.7599 -20.3332 4.91987 -0.528439 0.0 0.0 0.0 0.0 0.0 
646.194 723.338 -1309.68 -18.5981 63.6377 13.8475 5.61885 0.815867 3.92355 5.62723 0.56475 3.96742 5.6575 0.11438 4.00572 5.63589 0.745077 3.93758 -18.0332 12.9604 -2.91207 -18.9407 26.4812 2.54118 -0.0 0.0 -0.0 -12.1687 22.4394 -15.1213 -7.15322 -42.0431 65.3138 0.925227 -24.6231 0.201931 -16.9774 -0.897014 1.96891 2.09964 4.15914 15.7917 -0.0 0.0 -0.0 11.0033 -9.11347 -20.868 -38.5912 55.9796 -53.5392 1.25045 31.7743 -0.35591 43.5211 0.544966 5.40107 -1.0896 -20.9178 -1.97657 0.0 0.0 0.0 6.03677 25.6633 4.71027 7.34292 -0.371219 -1.06442 22.8108 -20.9788 -3.47337 -22.2322 0.0 0.0 -0.0 0.0 -0.0 24.92 9.40916 -1.92522 -55.1033 1.69507 -7.96431 37.8169 -18.0268 4.7815 0.354655 -0.0 -0.0 0.0 0.0 0.0 
636.156 724.211 -1309.35 -15.4495 65.3958 10.6643 5.3394 0.602321 4.06402 5.34852 0.342718 4.09405 5.36425 -0.14213 4.10589 5.34109 0.507552 4.07692 -19.5565 13.0798 -2.4417 -20.6023 26.4336 3.41992 -0.0 0.0 -0.0 -12.5199 22.9078 -15.4406 -7.29056 -42.172 65.6039 0.994769 -26.2326 0.231794 -16.6142 -0.871829 1.92982 2.06949 5.06173 15.9247 -0.0 0.0 -0.0 11.0316 -8.50416 -20.9992 -38.651 55.8118 -53.5307 1.26607 32.0934 -0.364169 43.6561 0.552965 5.41638 -0.713608 -20.4316 -3.98971 0.0 0.0 0.0 4.16587 25.6348 5.63663 6.99568 -0.350603 -1.01519 24.8187 -22.6802 -3.79442 -21.4507 0.0 0.0 -0.0 0.0 -0.0 26.1897 8.95736 -3.51116 -57.5703 1.94341 -8.25235 36.7569 -18.4842 4.68729 0.857987 -0.0 -0.0 0.0 0.0 0.0 
